<svg id="Layer_1" data-name="Layer 1" xmlns="http://www.w3.org/2000/svg" viewBox="0 0 147.98 110.34"><defs><style>.cls-1{fill:#231f20;}.cls-2{fill:#fff;}</style></defs><title>Artwork16_4ba4084c-90dd-44be-bf83-4b59eb32cbf7</title><path class="cls-1" d="M.1,55.36a17.57,17.57,0,0,0,0-1.92,20.78,20.78,0,0,1,.56-6.67,35.59,35.59,0,0,1,1-3.43,3,3,0,0,1,1-1.33c1.36-1.12,2.71-2.25,4.1-3.33a2.13,2.13,0,0,1,1.09-.4,17.61,17.61,0,0,1,1.92,0,4.3,4.3,0,0,1,2.23.77c1.13.75,2.31,1.44,3.46,2.16A9.81,9.81,0,0,1,18,43.45,5.65,5.65,0,0,0,20.08,45a38.56,38.56,0,0,1,6,3.41c.33.23.67.43,1,.64,1.14.68,1.32.12,1.33-.73s0-1.75,0-2.63A17.66,17.66,0,0,0,28,42.38a41.33,41.33,0,0,1-1.07-9.27c0-1.68,0-3.36,0-5a28.43,28.43,0,0,1,1-7.35,35.8,35.8,0,0,1,2.9-7.35,19.12,19.12,0,0,1,2-3c.94-1.2,2-2.32,3-3.45a10.25,10.25,0,0,1,2.87-2.14c.57-.3,1.16-.55,1.69-.9a13.08,13.08,0,0,1,4.92-1.78c.95-.17,1.92-.17,2.86-.36a9,9,0,0,1,5.37.77,57.89,57.89,0,0,1,6.24,3,10.37,10.37,0,0,1,2.17,1.5c.81.76,1.67,1.49,2.54,2.19a15.58,15.58,0,0,1,2.89,3.18c1.89,2.69,4,5.18,6.17,7.66A10.49,10.49,0,0,0,79,23.37a1.85,1.85,0,0,0,1.79-.4,13.67,13.67,0,0,0,2.6-3.13,3.17,3.17,0,0,0,.37-.87,9.74,9.74,0,0,0,.4-3.08c-.18-2.31,0-4.63-.21-7a12,12,0,0,1,1-5.4A5,5,0,0,1,87.32,1a8.62,8.62,0,0,1,3.43-1,3,3,0,0,1,1.19.06,12.71,12.71,0,0,1,3.9,1.8,28.82,28.82,0,0,0,4,2.61,30.23,30.23,0,0,1,6,4.76c.35.33.64.72,1,1A23.36,23.36,0,0,1,111.26,16a12.23,12.23,0,0,1,1.39,4.28,1.76,1.76,0,0,1-.27,1.13c-.66,1-1.36,2-2.11,2.9A3.14,3.14,0,0,1,108,25.47a13.51,13.51,0,0,1-5.22-.39,8.62,8.62,0,0,0-4-.17.76.76,0,0,0-.67,1,13.68,13.68,0,0,0,1.51,4.53,13.89,13.89,0,0,1,1.14,3.4,5.43,5.43,0,0,1-.17,2.85c-.22.84-.51,1.68-.81,2.5a3.4,3.4,0,0,1-.91,1.4c-.41.37-.81.77-1.2,1.16a.62.62,0,0,0,.15,1,41.94,41.94,0,0,1,5.6,3.64,13.2,13.2,0,0,0,3.19,1.64,16.4,16.4,0,0,1,2.79,1.37,14.12,14.12,0,0,0,3.26,1.48A51.32,51.32,0,0,1,120.17,54a87.34,87.34,0,0,0,10.49,4.1c1.36.46,2.7,1,4.06,1.45a17.42,17.42,0,0,0,2.51.8,37.6,37.6,0,0,1,5.29,1.53,8.19,8.19,0,0,1,5.07,4.76,4.48,4.48,0,0,1,.38,2.1,3.4,3.4,0,0,0-.05.71,6.58,6.58,0,0,1-1.84,5,3.16,3.16,0,0,1-2.91,1.36c-.48-.05-1,0-1.44,0a1.42,1.42,0,0,1-.69-.14c-1.43-1-3.2-.94-4.73-1.62a5.83,5.83,0,0,0-1.63-.33,1.24,1.24,0,0,0-1.14.74,1.26,1.26,0,0,0,.34,1.3,7,7,0,0,0,.82.51,8.89,8.89,0,0,1,2,1.66,5.5,5.5,0,0,1,1.7,4.32,4,4,0,0,1-1.19,3,11.14,11.14,0,0,1-5.27,3.16c-.23.06-.47.11-.69.18a9.32,9.32,0,0,1-2,.68c-1.91.15-3.8.49-5.73.47a47.75,47.75,0,0,1-6-.5,26.18,26.18,0,0,0-6.19-.46,4.71,4.71,0,0,0-2.45.84c-.08.06-.07.26-.07.4a.34.34,0,0,0,.14.18c1.86,1.12,2.74,3.08,4,4.68a4.88,4.88,0,0,1,.76,1.74c.29,1.08.51,2.18.73,3.27a7.73,7.73,0,0,1-1.76,6.26,4.08,4.08,0,0,1-1.74,1.25A28.23,28.23,0,0,1,101.8,110c-1,.07-1.9.24-2.86.28a13.75,13.75,0,0,1-2.87-.06c-1.74-.27-3.49-.46-5.24-.65a17,17,0,0,1-3-.61,24.92,24.92,0,0,0-3.5-.79A26.1,26.1,0,0,1,77.71,106a43.92,43.92,0,0,1-4.56-2.12,47,47,0,0,1-9.24-6.39,56.41,56.41,0,0,0-5.67-4.8C55.92,91,53.83,89,51.67,87.13a37.69,37.69,0,0,1-4.31-4.79,17.16,17.16,0,0,0-2.67-2.72,50.52,50.52,0,0,1-6-5.55c-1-1.13-2.14-2.16-3.22-3.22a2.72,2.72,0,0,0-.38-.29c-.28-.21-.85.06-.93.44a3.56,3.56,0,0,0,0,1.89,11.62,11.62,0,0,1,.34,3.57,9.11,9.11,0,0,1-2,5.29,1.78,1.78,0,0,1-1.23.7,7.19,7.19,0,0,1-4.44-.56,13.16,13.16,0,0,1-5.17-4.51,30.88,30.88,0,0,1-3.47-6.55c-.57-1.66-1.25-3.29-1.92-4.91-.36-.88-.8-1.74-1.24-2.59-.09-.16-.43-.34-.54-.29a.8.8,0,0,0-.38.56c-.14,1.59-.21,3.19-.37,4.78a28.82,28.82,0,0,1-.48,3.07,2,2,0,0,1-.94,1.34c-1,.57-1.91,1.17-2.87,1.74a.87.87,0,0,1-.45.1,4.47,4.47,0,0,1-2.86-1,15.31,15.31,0,0,1-4.66-6.85A20.48,20.48,0,0,1,.4,61.35c-.08-2-.26-4-.4-6ZM87.83,11.41h0c0,1-.05,2.08,0,3.11A12.46,12.46,0,0,1,87.47,19a10.11,10.11,0,0,0-.38,1.88,5,5,0,0,1-2.56,3.84c-.54.33-1,.73-1.57,1.09a2,2,0,0,1-.61.37,8.27,8.27,0,0,1-4.47.28,18.56,18.56,0,0,1-9.63-6.4c-1.66-2-3.29-4.12-4.85-6.25a26,26,0,0,0-3.74-4A27.85,27.85,0,0,0,51.15,5a7.68,7.68,0,0,0-3-.46A17.31,17.31,0,0,0,40.63,6.9a5.06,5.06,0,0,0-1.13.88c-1,1-2,2-3,3.06A10.57,10.57,0,0,0,35.57,12a27.6,27.6,0,0,0-2.83,5.27,21.41,21.41,0,0,0-2,8.12c-.12,3.67-.48,7.35.27,11,.06.31,0,.64.07,1a9.07,9.07,0,0,0,.46,2.34,11,11,0,0,1,.6,3.53c0,1.52.14,3,.16,4.55,0,1-.05,2.08-.1,3.12a1.45,1.45,0,0,1-.18.69,4.36,4.36,0,0,1-1.62,1.39,2,2,0,0,1-1.39.07,6.05,6.05,0,0,1-3.44-1.53l-.19-.14a38,38,0,0,0-6.15-3.69,4.36,4.36,0,0,1-1.71-1.28c-1.58-2-3.85-3.07-6-4.36a1.28,1.28,0,0,0-1.37,0A28.66,28.66,0,0,0,5.73,45.6a1.49,1.49,0,0,0-.43.57,12,12,0,0,0-1,3.2,46.07,46.07,0,0,0,.16,7c.12,1,.24,2.06.28,3.1a20.61,20.61,0,0,0,1,6.38,5.78,5.78,0,0,1,.34,1.64,6.39,6.39,0,0,0,1.42,3.24.77.77,0,0,0,.63.23A1.78,1.78,0,0,0,9,70.58a3,3,0,0,0,1.05-1.84,23.83,23.83,0,0,0,.21-2.39,8.52,8.52,0,0,1,1.28-4.06,4,4,0,0,1,3.12-2,2.42,2.42,0,0,1,2.15.78,15.67,15.67,0,0,1,2.86,4.68c1,2.25,2,4.54,3,6.8a28,28,0,0,0,3.39,5.22,7,7,0,0,0,1.24,1.12c.8.63,1.42.48,1.93-.47a5.43,5.43,0,0,0,.55-1.32,10.09,10.09,0,0,0,.29-4.27,3.79,3.79,0,0,1,.53-2.77,7.19,7.19,0,0,1,3.44-2.86,1.54,1.54,0,0,1,1.4,0,11.4,11.4,0,0,1,3.65,2.66,6.25,6.25,0,0,0,.72.63l3.8,3.65,2.57,2.51c1.66,1.62,3.35,3.2,4.86,5A48.23,48.23,0,0,0,58.94,89a127.17,127.17,0,0,1,10.31,8.22,17.65,17.65,0,0,0,2.89,2.13c1,.57,1.92,1.16,2.89,1.71a48.66,48.66,0,0,0,7.2,3.28c.37.13.76.22,1.15.32l4.9,1.14a13.63,13.63,0,0,0,1.42.26c1.74.23,3.49.42,5.23.69a11.51,11.51,0,0,0,2.87.11c1.11-.1,2.23-.2,3.33-.4,1.33-.24,2.66-.53,4-.88a5.87,5.87,0,0,0,4-3.8,4.4,4.4,0,0,0,.22-2.59A8.66,8.66,0,0,0,107.14,95c-.49-.53-1.07-1-1.57-1.48-1.56-1.62-1.73-2.78-.71-4.76l.24-.42a2.81,2.81,0,0,1,1.42-1.24,18.09,18.09,0,0,1,5.09-1.31,23.17,23.17,0,0,1,7.38.41,10.5,10.5,0,0,0,2.62.2,41.52,41.52,0,0,0,6.66-.83,11.55,11.55,0,0,0,2-.63,4.39,4.39,0,0,0,2.29-2.35,1.85,1.85,0,0,0-.35-2A10.91,10.91,0,0,0,131,79.51a3.31,3.31,0,0,1-1.25-3.61c.4-2.59,3.12-4.85,5.63-4.52a15.29,15.29,0,0,1,3.55.46,3,3,0,0,0,3.09-.79c.43-.37.82-.77,1.22-1.16,1-1,1-1.21.3-2.5a5.66,5.66,0,0,0-3.35-2.89c-.38-.12-.78-.17-1.16-.25a22.37,22.37,0,0,1-2.58-.57c-2.11-.7-4.21-1.47-6.31-2.22L127,60.33A75.9,75.9,0,0,1,116.85,56a21,21,0,0,0-4.44-1.78,17.67,17.67,0,0,1-4-1.53c-1.48-.81-3-1.43-4.56-2.13a20.14,20.14,0,0,1-4.72-2.8A10.7,10.7,0,0,0,97.94,47a48.48,48.48,0,0,1-4.75-3.59,9.58,9.58,0,0,0-1.11-.91,2.48,2.48,0,0,1-1-1.79c0-.2.18-.55.36-.55A8.86,8.86,0,0,0,94,40a3.76,3.76,0,0,0,2.43-1.81A6,6,0,0,0,97,32.44c-.26-.58-.5-1.18-.72-1.78-.49-1.27-1-2.54-1.43-3.81a4.27,4.27,0,0,1,0-2.6,1.79,1.79,0,0,1,.84-1.11,4.22,4.22,0,0,1,2.28-.65c2.32,0,4.64-.09,7,0a2.22,2.22,0,0,0,1.88-.76,3.09,3.09,0,0,0,.76-2.66,5.1,5.1,0,0,0-.61-2.05,24.56,24.56,0,0,0-4.46-5.92c-1.49-1.33-3-2.64-4.5-3.95a2.19,2.19,0,0,0-.59-.42,18.16,18.16,0,0,1-3.7-2.2,8.68,8.68,0,0,0-2.39-1.07,1.87,1.87,0,0,0-.7-.11A2.68,2.68,0,0,0,88,5.44a6.06,6.06,0,0,0-.14,1.42C87.82,8.37,87.83,9.89,87.83,11.41Z" transform="translate(0 0)"/><path class="cls-2" d="M87.83,11.41c0-1.52,0-3,0-4.55A6.06,6.06,0,0,1,88,5.44a2.68,2.68,0,0,1,2.57-2.13,1.87,1.87,0,0,1,.7.11,8.68,8.68,0,0,1,2.39,1.07,18.16,18.16,0,0,0,3.7,2.2,2.19,2.19,0,0,1,.59.42c1.5,1.31,3,2.62,4.5,4A24.56,24.56,0,0,1,106.88,17a5.1,5.1,0,0,1,.61,2.05,3.09,3.09,0,0,1-.76,2.66,2.22,2.22,0,0,1-1.88.76c-2.32-.05-4.64,0-7,0a4.22,4.22,0,0,0-2.28.65,1.79,1.79,0,0,0-.84,1.11,4.27,4.27,0,0,0,0,2.6c.47,1.27.94,2.54,1.43,3.81.22.6.46,1.2.72,1.78a6,6,0,0,1-.52,5.73A3.76,3.76,0,0,1,94,40a8.86,8.86,0,0,1-2.62.17c-.18,0-.41.35-.36.55a2.48,2.48,0,0,0,1,1.79,9.58,9.58,0,0,1,1.11.91A48.48,48.48,0,0,0,97.94,47a10.7,10.7,0,0,1,1.18.81,20.14,20.14,0,0,0,4.72,2.8c1.53.7,3.08,1.32,4.56,2.13a17.67,17.67,0,0,0,4,1.53A21,21,0,0,1,116.85,56,75.9,75.9,0,0,0,127,60.33l3.16,1.13c2.1.75,4.2,1.52,6.31,2.22a22.37,22.37,0,0,0,2.58.57c.38.08.78.13,1.16.25a5.66,5.66,0,0,1,3.35,2.89c.68,1.29.68,1.52-.3,2.5-.4.39-.79.79-1.22,1.16a3,3,0,0,1-3.09.79,15.29,15.29,0,0,0-3.55-.46c-2.51-.33-5.23,1.93-5.63,4.52A3.31,3.31,0,0,0,131,79.51a10.91,10.91,0,0,1,1.25,1.11,1.85,1.85,0,0,1,.35,2A4.39,4.39,0,0,1,130.32,85a11.55,11.55,0,0,1-2,.63,41.52,41.52,0,0,1-6.66.83,10.5,10.5,0,0,1-2.62-.2,23.17,23.17,0,0,0-7.38-.41,18.09,18.09,0,0,0-5.09,1.31,2.81,2.81,0,0,0-1.42,1.24l-.24.42c-1,2-.85,3.14.71,4.76.5.51,1.08,1,1.57,1.48a8.66,8.66,0,0,1,2.21,4.18,4.4,4.4,0,0,1-.22,2.59,5.87,5.87,0,0,1-4,3.8c-1.32.35-2.65.64-4,.88-1.1.2-2.22.3-3.33.4a11.51,11.51,0,0,1-2.87-.11c-1.74-.27-3.49-.46-5.23-.69a13.63,13.63,0,0,1-1.42-.26l-4.9-1.14c-.39-.1-.78-.19-1.15-.32a48.66,48.66,0,0,1-7.2-3.28c-1-.55-1.92-1.14-2.89-1.71a17.65,17.65,0,0,1-2.89-2.13A127.17,127.17,0,0,0,58.94,89a48.23,48.23,0,0,1-7.88-7.36c-1.51-1.77-3.2-3.35-4.86-5l-2.57-2.51-3.8-3.65a6.25,6.25,0,0,1-.72-.63,11.4,11.4,0,0,0-3.65-2.66,1.54,1.54,0,0,0-1.4,0,7.19,7.19,0,0,0-3.44,2.86,3.79,3.79,0,0,0-.53,2.77,10.09,10.09,0,0,1-.29,4.27,5.43,5.43,0,0,1-.55,1.32c-.51,1-1.13,1.1-1.93.47a7,7,0,0,1-1.24-1.12,28,28,0,0,1-3.39-5.22c-1-2.26-2-4.55-3-6.8a15.67,15.67,0,0,0-2.86-4.68,2.42,2.42,0,0,0-2.15-.78,4,4,0,0,0-3.12,2,8.52,8.52,0,0,0-1.28,4.06,23.83,23.83,0,0,1-.21,2.39A3,3,0,0,1,9,70.58a1.78,1.78,0,0,1-.88.33.77.77,0,0,1-.63-.23,6.39,6.39,0,0,1-1.42-3.24,5.78,5.78,0,0,0-.34-1.64,20.61,20.61,0,0,1-1-6.38c0-1-.16-2.07-.28-3.1a46.07,46.07,0,0,1-.16-7,12,12,0,0,1,1-3.2,1.49,1.49,0,0,1,.43-.57A28.66,28.66,0,0,1,10.24,42a1.28,1.28,0,0,1,1.37,0c2.11,1.29,4.38,2.35,6,4.36a4.36,4.36,0,0,0,1.71,1.28,38,38,0,0,1,6.15,3.69l.19.14A6.05,6.05,0,0,0,29.06,53a2,2,0,0,0,1.39-.07,4.36,4.36,0,0,0,1.62-1.39,1.45,1.45,0,0,0,.18-.69c0-1,.12-2.08.1-3.12,0-1.52-.13-3-.16-4.55a11,11,0,0,0-.6-3.53,9.07,9.07,0,0,1-.46-2.34c0-.32,0-.65-.07-1-.75-3.65-.39-7.33-.27-11a21.41,21.41,0,0,1,2-8.12A27.6,27.6,0,0,1,35.57,12a10.57,10.57,0,0,1,.88-1.12c1-1,2-2.05,3-3.06a5.06,5.06,0,0,1,1.13-.88A17.31,17.31,0,0,1,48.1,4.52a7.68,7.68,0,0,1,3,.46,27.85,27.85,0,0,1,8.51,4.83,26,26,0,0,1,3.74,4C65,16,66.59,18.05,68.25,20.09a18.56,18.56,0,0,0,9.63,6.4,8.27,8.27,0,0,0,4.47-.28,2,2,0,0,0,.61-.37c.53-.36,1-.76,1.57-1.09a5,5,0,0,0,2.56-3.84A10.11,10.11,0,0,1,87.47,19a12.46,12.46,0,0,0,.41-4.51c-.06-1,0-2.07,0-3.11ZM62.3,34.05h0A3.69,3.69,0,0,0,65,33.17a3.61,3.61,0,0,0,1.51-2.61,15.49,15.49,0,0,1,.47-2.1c.16-.7.32-1.41.44-2.11a5,5,0,0,0-.71-3.46,10.45,10.45,0,0,0-2.43-2.95,7.37,7.37,0,0,0-1.8-1.16,13.06,13.06,0,0,0-5.15-.84c-1.05,0-1.88.23-2.3,1.33a7.42,7.42,0,0,1-.75,1.22,7.65,7.65,0,0,0-.88,5.34,9.57,9.57,0,0,0,2.93,5.65A9.08,9.08,0,0,0,62.3,34.05ZM66,48.12a6.1,6.1,0,0,0,0-2.83,3.08,3.08,0,0,0-1.48-2.08,13.53,13.53,0,0,0-2.8-1.32,16.18,16.18,0,0,1-3.32-1.35,2.69,2.69,0,0,0-2.32-.13,12.43,12.43,0,0,0-1.77.73,3,3,0,0,0-1.78,2.62,12.38,12.38,0,0,0,.38,4A19.17,19.17,0,0,0,55.36,53a7.34,7.34,0,0,0,3.07,2.6,3.79,3.79,0,0,0,4.08-.07c.26-.18.56-.31.83-.48a2.45,2.45,0,0,0,1-1c.24-.51.54-1,.77-1.49A7.75,7.75,0,0,0,66,48.12ZM36.63,32.8A13,13,0,0,0,38,38.44c.15.28.33.54.5.81,1.36,2.23,3.51,3.32,6.83,2.58a3.32,3.32,0,0,0,2.14-1.39,4.86,4.86,0,0,0,.66-4.74,9.32,9.32,0,0,1-.69-2.76,3.56,3.56,0,0,0-.37-1.61C46.4,30.16,45.72,29,45,27.85a2.84,2.84,0,0,0-.64-.7,4.62,4.62,0,0,0-4.74-.28,15.74,15.74,0,0,0-1.81,1.55,2.37,2.37,0,0,0-.6,1A9.09,9.09,0,0,0,36.63,32.8ZM47.92,70.46h-.59c-.27,0-.68.28-.71.55a3.55,3.55,0,0,0,0,.92.62.62,0,0,0,.28.38,10.57,10.57,0,0,1,2.18,2.2,94.65,94.65,0,0,0,9.71,9.91,10.8,10.8,0,0,0,1,.71c1.25.85,2.54,1.66,3.75,2.56,1.67,1.25,1.56.74,2.89-.09a.83.83,0,0,0,.14-1.26,8.24,8.24,0,0,0-2-2.06,16.94,16.94,0,0,1-3.71-3.36,4.76,4.76,0,0,0-.85-.83A9.49,9.49,0,0,1,57.76,78a6.08,6.08,0,0,0-1-1,16.12,16.12,0,0,1-2.09-2C53.93,74.3,53,73.78,52.33,73a10,10,0,0,0-3.81-2.4A2.42,2.42,0,0,0,47.92,70.46ZM70,89.1a5.18,5.18,0,0,0-.76,0,1,1,0,0,0-.75.51.88.88,0,0,0,.12.88,6.43,6.43,0,0,0,2.07,1.92,5,5,0,0,0,1.56.5.8.8,0,0,0,.45-.08c1.06-.38,1.3-1,.71-2a2.67,2.67,0,0,0-1.63-1.29Z" transform="translate(0 0)"/><path class="cls-1" d="M62.3,34.05a9.08,9.08,0,0,1-6-2.57,9.57,9.57,0,0,1-2.93-5.65,7.65,7.65,0,0,1,.88-5.34A7.42,7.42,0,0,0,55,19.27c.42-1.1,1.25-1.31,2.3-1.33a13.06,13.06,0,0,1,5.15.84,7.37,7.37,0,0,1,1.8,1.16,10.45,10.45,0,0,1,2.43,2.95,5,5,0,0,1,.71,3.46c-.12.7-.28,1.41-.44,2.11a15.49,15.49,0,0,0-.47,2.1A3.61,3.61,0,0,1,65,33.17a3.69,3.69,0,0,1-2.66.88Z" transform="translate(0 0)"/><path class="cls-1" d="M66,48.12a7.75,7.75,0,0,1-.93,4.39c-.23.51-.53,1-.77,1.49a2.45,2.45,0,0,1-1,1c-.27.17-.57.3-.83.48a3.79,3.79,0,0,1-4.08.07A7.34,7.34,0,0,1,55.36,53a19.17,19.17,0,0,1-2.45-5.17,12.38,12.38,0,0,1-.38-4,3,3,0,0,1,1.78-2.62,12.43,12.43,0,0,1,1.77-.73,2.69,2.69,0,0,1,2.32.13,16.18,16.18,0,0,0,3.32,1.35,13.53,13.53,0,0,1,2.8,1.32A3.08,3.08,0,0,1,66,45.29,6.1,6.1,0,0,1,66,48.12Z" transform="translate(0 0)"/><path class="cls-1" d="M36.63,32.8a9.09,9.09,0,0,1,.59-3.37,2.37,2.37,0,0,1,.6-1,15.74,15.74,0,0,1,1.81-1.55,4.62,4.62,0,0,1,4.74.28,2.84,2.84,0,0,1,.64.7c.71,1.15,1.39,2.31,2.08,3.48a3.56,3.56,0,0,1,.37,1.61,9.32,9.32,0,0,0,.69,2.76,4.86,4.86,0,0,1-.66,4.74,3.32,3.32,0,0,1-2.14,1.39c-3.32.74-5.47-.35-6.83-2.58-.17-.27-.35-.53-.5-.81A13,13,0,0,1,36.63,32.8Z" transform="translate(0 0)"/><path class="cls-1" d="M47.92,70.46a2.42,2.42,0,0,1,.6.12A10,10,0,0,1,52.33,73c.67.8,1.6,1.32,2.29,2.07a16.12,16.12,0,0,0,2.09,2,6.08,6.08,0,0,1,1,1A9.49,9.49,0,0,0,60,80.09a4.76,4.76,0,0,1,.85.83,16.94,16.94,0,0,0,3.71,3.36,8.24,8.24,0,0,1,2,2.06.83.83,0,0,1-.14,1.26c-1.33.83-1.22,1.34-2.89.09-1.21-.9-2.5-1.71-3.75-2.56a10.8,10.8,0,0,1-1-.71,94.65,94.65,0,0,1-9.71-9.91,10.57,10.57,0,0,0-2.18-2.2.62.62,0,0,1-.28-.38,3.55,3.55,0,0,1,0-.92c0-.27.44-.54.71-.55Z" transform="translate(0 0)"/><path class="cls-1" d="M70,89.1l1.77.45a2.67,2.67,0,0,1,1.63,1.29c.59,1,.35,1.62-.71,2a.8.8,0,0,1-.45.08,5,5,0,0,1-1.56-.5,6.43,6.43,0,0,1-2.07-1.92.88.88,0,0,1-.12-.88,1,1,0,0,1,.75-.51A5.18,5.18,0,0,1,70,89.1Z" transform="translate(0 0)"/></svg>