<?xml version="1.0" encoding="utf-8"?>
<!-- Generator: Adobe Illustrator 22.1.0, SVG Export Plug-In . SVG Version: 6.00 Build 0)  -->
<svg version="1.1" id="Layer_1" xmlns="http://www.w3.org/2000/svg" xmlns:xlink="http://www.w3.org/1999/xlink" x="0px" y="0px"
	 viewBox="0 0 142.8 189.8" style="enable-background:new 0 0 142.8 189.8;" xml:space="preserve">
<style type="text/css">
	.st0{fill:#231F20;}
	.st1{fill:#dc2743;}
</style>
<path class="st0" d="M88.7,189.8c-4.9-0.1-10.5-1.2-16-3c-2.3-0.8-4.5-1.7-6.6-2.8c-0.1,0-0.2-0.1-0.2-0.1c-2.4-1.5-4.8-2.9-7-4.7
	c-0.9-0.8-1.9-1.5-2.8-2.3c-0.7-0.6-1.4-1.3-2-2.1c-1.7-2.1-3.4-4.2-4.7-6.7c-0.2-0.4-0.6-0.7-1-1.1c-2.1-1.9-4-4-5.5-6.3
	c-0.5-0.8-1-1.6-1.5-2.5c-1.4-2.7-2.8-5.4-4.3-8c-2-3.5-3.7-7.1-5.3-10.7c-1.5-3.5-3.2-7-5.3-10.2c-0.7-1.1-1.2-2.2-1.9-3.3
	c-0.9-1.4-1.7-2.9-2.6-4.3c-0.4-0.7-0.9-1.3-1.3-2c-1.3-2.3-2.9-4.2-4.7-6.1c-0.5-0.5-1-1-1.5-1.6c-1.6-2-3.7-3.5-5.7-5.1
	c-0.8-0.6-1.7-0.9-2.6-1.2c-1.5-0.4-2.9-1-4.2-1.6c-0.1-0.1-0.3-0.1-0.4-0.2c-1.4-1.2-2-1.8-1.5-3.4c0.2-0.6,0.4-1.2,0.6-1.8
	C0.8,98.4,1,98,1.1,97.6c0.5-1.3,0.6-2.8,1.2-4.1c0.5-1.2,0.7-2.6,1.1-3.9c0.5-1.9,1-3.7,1.5-5.5c0.6-1.8,1.2-3.6,1.5-5.5
	c0.1-0.6,0.3-1.2,0.5-1.8c0.7-2.1,1.4-4.3,2.1-6.4c0.3-0.9,0.7-1.8,1.1-2.7c0.6-1.5,1.3-2.9,1.9-4.4c0.3-0.7,0.5-1.5,0.7-2.3
	c0.3-1.4,0.5-2.8,0.7-4.3c0-0.2,0.1-0.5,0.1-0.7c0.6-2.5,1.1-5,1.7-7.5c1-4.5,2.7-8.7,4.4-12.9c1.7-4.1,3.9-7.9,6.4-11.5
	c2.2-3.2,4.5-6.2,7-9.2c1.9-2.2,4-4.1,6.2-6c0.7-0.6,1.5-1,2.3-1.2c1.2-0.4,2.4-0.9,3.5-1.5c1.1-0.6,2.2-0.8,3.4-0.9
	c1.4-0.1,2.9-0.3,4.3-0.5c1.8-0.4,3.6-0.4,5.5-0.1C59.9,5,61.5,5.1,63,5.4c3.1,0.6,6.3,1.2,9.2,2.5c1.8,0.8,3.6,1.6,5.4,2.5
	c0.6,0.3,1.1,0.2,1.6-0.1c0.2-0.1,0.4-0.3,0.6-0.4c1.6-1.5,3.5-2.5,5.5-3.3c2.7-1.1,5.3-2.2,8-3.2c1.8-0.7,3.6-1.3,5.4-1.9
	c1.7-0.6,3.5-1,5.4-1.2c2.3-0.3,4.6,0,6.9,0.6c1.6,0.4,3.3,0.8,4.7,1.6c1.6,0.9,3.2,1.9,4.5,3.1c0.5,0.5,1.1,0.9,1.2,1.7
	c0,0.1,0.1,0.3,0.2,0.4c1.6,2,2.7,4.4,4.2,6.4c0.7,0.9,1.1,2,1.4,3c1,3.4,1.8,7,2.6,10.5c0.6,2.5,1.1,5,1.2,7.6
	c0,0.7,0.1,1.3,0.5,1.8c1.1,1.8,1.3,3.8,1.3,5.8c0,2.6-0.2,5.3-0.4,7.9c-0.1,0.7-0.2,1.4-0.3,2.1c-0.6,3.2-1.1,6.5-1.9,9.6
	c-0.3,0.9-0.3,1.9-0.5,2.8c-0.4,1.8-0.8,3.6-1.2,5.4c-0.5,1.8-1.1,3.7-1.7,5.5c-0.5,1.8-1.1,3.5-1.6,5.3c-0.3,1-0.7,1.9-1.1,2.9
	c-0.1,0.3-0.1,0.6,0.1,0.9c0.6,0.9,1.3,1.8,1.9,2.8c0.4,0.7,0.8,1.4,1,2.2c0.7,2,1.6,4,2.8,5.8c0.6,0.9,1,1.8,1.5,2.8
	c0.2,0.4,0.4,0.8,0.7,1.2c0.8,1,1.3,2.2,1.8,3.4c0.5,1.5,1.1,3,1.7,4.5c0.3,0.8,0.5,1.7,0.8,2.5c0.3,1,0.4,2,0.7,3
	c0.5,1.8,0.9,3.6,1.2,5.4c0.1,0.6,0.3,1.2,0.5,1.8c0.4,1.1,0.8,2.3,1.1,3.4c1.1,3.6,1.7,7.3,2.5,11c0.4,1.8,0.5,3.6,0.4,5.5
	c-0.1,0.8,0,1.6-0.1,2.4c0,1.9,0,3.8-0.1,5.8c-0.1,1-0.1,2.1-0.4,3.1c-0.3,0.8-0.3,1.7-0.5,2.6c-0.6,2.9-0.9,5.9-2.1,8.6
	c-0.4,1-0.6,2-1,2.9c-1.1,2.3-2.6,4.2-4,6.2c-0.2,0.3-0.5,0.5-0.6,0.7c-1,1.8-2.5,3.1-4.1,4.3c-0.5,0.4-1,0.7-1.5,1.2
	c-1.2,1.1-2.6,1.9-4,2.6c-2.1,1.1-4.3,2.2-6.4,3.2c-1.1,0.5-2.2,1-3.3,1.4c-2.7,0.9-5.5,1.8-8.2,2.6c-2.6,0.7-5.2,0.9-7.8,1.3
	c-1,0.1-1.9,0.1-2.9,0.3C93.6,189.9,91.6,189.9,88.7,189.8z M42.6,80c0-0.1,0-0.3,0-0.4c0-0.2,0-0.3-0.2-0.2c0,0,0,0.1,0,0.2
	C42.5,79.6,42.5,79.8,42.6,80c0.3,0.6,0,1-0.4,1.4c-0.1,0.1,0,0.3,0.2,0.3c0.1,0,0.2,0,0.2,0c0.1,0,0.4-0.1,0.4-0.2
	c0.1-0.3,0.1-0.6,0.1-0.9C43.1,80.3,42.9,80,42.6,80z M89.5,186.9c1.6,0.1,3.2,0,4.8-0.3c2.2-0.4,4.4-0.7,6.7-0.9
	c4.1-0.5,8-1.7,11.7-3.4c1.3-0.6,2.6-1.3,3.9-1.8c1.5-0.7,3-1.5,4.4-2.5c2.1-1.5,4.2-2.9,5.8-5c1-1.2,2-2.5,3-3.8
	c1.4-1.8,2.5-3.7,3.2-5.9c0.8-2,1.5-4.1,2.1-6.1c0.8-2.7,1.5-5.4,2.2-8.1c0.7-2.8,0.8-5.7,1.2-8.5c0.1-0.6,0-1.3,0-1.9
	c0-1.5-0.4-2.8-0.7-4.3c-0.9-5.4-2.2-10.6-3.9-15.8c-0.2-0.6-0.3-1.2-0.5-1.9c-0.2-0.8-0.4-1.6-0.6-2.3c-0.6-2.5-1.6-4.8-2.4-7.3
	c-1.2-3.8-3.1-7.4-5.1-10.8c-0.6-1-1.2-2.1-1.5-3.3c-0.2-0.9-0.7-1.8-1.3-2.6c-0.7-1-1.4-1.9-2-3c-0.3-0.5-0.7-0.9-1.1-1.2
	c-0.3-0.3-0.5-0.3-0.7,0.1c-0.5,1-0.4,2,0.2,3c0.7,1.1,1.3,2.2,1.5,3.5c0.1,0.4,0.3,0.7,0.5,1.1c0.6,1,1.2,2.1,1.8,3.1
	c0.6,0.9,1.1,1.8,1.5,2.7c0.6,1.6,1.2,3.1,1.9,4.7c1.1,2.4,1.9,4.9,2.8,7.4c0.6,1.7,0.8,3.4,1,5.2c0.3,2.4,0.4,4.8,0.3,7.2
	c0,1-0.3,1.9-0.4,2.8c-0.2,1.3-0.3,2.5-0.6,3.8c-0.2,0.8-0.3,1.5-0.1,2.3c0.2,0.8,0,1.6-0.3,2.3c-0.1,0.3-0.3,0.6-0.4,0.9
	c-0.5,1.1-0.5,1.5,0.9,1.8c0.3,0.1,0.6,0.1,0.9,0.2c1.5,0.3,1.5,0.3,2.6,1.5c0.1,0.1,0.2,0.2,0.3,0.4c0.4,0.5,0.2,1.3-0.4,1.7
	c-0.4,0.2-0.9,0.4-1.4,0.2c-0.4-0.1-0.8-0.3-1.1-0.4c-0.5-0.2-1-0.5-1.5-0.6c-1.2-0.3-2.3-0.2-3,0.9c-0.7,0.9-1.4,1.7-2.4,2.3
	c-2.5,1.5-4.9,3-7.6,4.1c-1.2,0.5-2.5,1-3.8,1.5c-2.7,1.2-5.5,1.7-8.4,1.5c-3.7-0.3-7.3-0.7-11-1c-0.4,0-0.8-0.1-1.2-0.2
	c-2.7-0.7-5.4-0.8-8.1-0.7c-2.9,0.1-5.9,0.4-8.8,0.9c-1.7,0.3-3.3,0.5-5,0.5c-0.6,0-1.3,0.1-1.9,0.2c-1.7,0.4-3.4,0.8-5.1,1.2
	c-1,0.3-2,0.6-2.9,1c-0.6,0.3-1.4,0.4-2,0.7c-0.9,0.4-1.7,0.2-2.5-0.2c-0.3-0.2-0.6-0.5-0.8-0.8c-0.3-0.5-0.1-1.2,0.4-1.4
	c0.8-0.4,1.6-0.7,2.4-1.1c0.8-0.4,1.6-0.6,2.3-1.3c0-1-0.8-1.5-1.2-2.3c-0.6-1.1-1.3-2.2-1.9-3.3c-0.8-1.3-1.5-2.6-2.2-4
	c-0.3-0.6-0.6-1.1-0.9-1.7c-1.5-2.4-3.1-4.9-4.6-7.3c-0.4-0.7-0.9-1.3-1.4-1.9c-0.7-1-1.4-1.9-2.2-2.9c-1.7-2.2-3.5-4.4-5.5-6.3
	c-1.5-1.4-2.9-2.8-4.3-4.2c-0.9-0.8-1.7-1.6-2.6-2.4c-2-1.7-4-3.4-6-5.2c-4.1-3.7-8.6-6.6-13.9-8.2c-0.5-0.1-0.9-0.3-1.2-0.7
	c-0.4-0.5-1-0.7-1.7-0.6c-0.3,0.1-0.6-0.1-0.9-0.3c-0.2-0.2-0.3-0.4-0.5-0.5c-0.9-0.8-0.7-1.2-0.1-2.1c0.1-0.1,0.2-0.3,0.3-0.4
	c1.8-2,3.1-4.3,4.7-6.4c0.9-1.2,1.7-2.5,2.2-4c0.2-0.6,0.5-1.2,0.7-1.8c1-2.2,2.1-4.3,3-6.6c1.1-2.9,2.4-5.8,3.2-8.8
	c0.2-0.8,0.5-1.5,0.8-2.3c0.2-0.4,0.4-0.9,0.5-1.3c0.7-2.6,1.8-5,3-7.3c0.4-0.8,0.8-1.6,1.1-2.4c1-2.7,2.4-5.2,3.6-7.9
	c0.4-0.8,0.7-1.6,1.4-2.2c1.7-1.7,3.5-3.3,5.7-4.3c1-0.5,1.9-1.1,2.8-1.9c1.2-1.1,2.5-2,3.9-2.7c1.5-0.8,2.8-1.9,4.1-2.9
	c0.4-0.4,0.4-0.8-0.1-1.2c-0.8-0.6-1.7-1.2-2.6-1.8c-0.8-0.5-1.4-1.1-2-1.7c-0.4-0.4-0.3-1.1,0.3-1.4c0.5-0.3,1.1-0.4,1.6-0.1
	c1.3,0.7,2.6,1.3,3.8,2.1c0.9,0.6,1.9,1.1,2.9,1.6c0.6,0.3,1.2,0.5,1.8,0.5c2.5,0.1,4.9,1,7.4,1c2,0.7,4.1,0.7,6.2,0.9
	c1.1,0.1,2.2,0.1,3.3-0.2c1.3-0.3,2.5-0.4,3.8-0.3c1.4,0.1,2.7,0,4.1-0.3c0.4-0.1,0.8-0.2,1.2-0.2c1.5-0.1,3-0.5,4.5-0.9
	c1.2-0.4,2.4-0.8,3.7-1.1c4-1,7.9-2.7,11.6-4.5c0.3-0.1,0.7-0.3,0.8-0.5c0.7-1.3,1.9-1.6,3.2-1.9c0.5-0.1,1-0.5,1.5-0.7
	c0.6-0.3,1.1-0.6,1.7-0.8c0.8-0.3,1.6-0.2,2.3,0.1c0.5,0.2,0.7,1,0.3,1.4c-0.2,0.3-0.5,0.6-0.8,0.9c-0.7,0.7-0.7,1.1,0,1.8
	c0.9,0.9,1.8,1.8,2.4,3c0.5,0.9,1.1,1.7,1.9,2.5c0.4,0.4,0.8,1,1.2,1.5c1.2,1.8,2.4,3.6,3.7,5.3c1.4,1.8,2.4,3.8,3.1,5.9
	c0.2,0.6,0.5,1.2,0.7,1.8c1,2.7,1.6,5.5,1.6,8.5c0,2.8-0.2,5.6-0.2,8.4c0,1.4-0.2,2.7-0.5,4c-0.4,1.8-0.8,3.6-0.9,5.4
	c0,0.6-0.2,1.3-0.3,1.9c-0.4,2.2-0.8,4.4-1.1,6.6c0,0.2,0,0.3,0,0.5c0,0.1,0.1,0.2,0.1,0.2c0.1,0,0.3-0.1,0.3-0.1
	c0.3-0.7,0.7-1.5,0.9-2.2c0.6-2.3,1.4-4.6,2.1-6.9c0.2-0.6,0.3-1.2,0.5-1.8c0.6-1.8,0.8-3.7,1.2-5.6c0.6-2.9,1.3-5.8,1.9-8.7
	c0.5-2.5,0.8-5.1,1-7.6c0.1-0.5-0.2-0.8-0.7-0.7c-0.6,0-1.3,0.1-1.9,0.1c-0.1,0-0.3-0.2-0.3-0.3c-0.1-0.2-0.1-0.5,0-0.7
	c0.3-1.4,0.6-2.8,0.9-4.2c0.8-4.1,0.7-8.3-0.4-12.4c-0.2-0.8-0.5-1.5-0.6-2.3c-0.6-2.7-1.4-5.4-2.3-8.1c-0.6-1.7-1.3-3.3-2.3-4.7
	c-0.9-1.3-1.8-2.7-2.7-4c-1.6-2.5-3.8-4.3-6.3-5.8c-0.4-0.2-0.9-0.4-1.3-0.6c-2.2-0.6-4.4-0.9-6.6-0.4c-1.4,0.3-2.8,0.7-4.2,1.1
	c-4.1,1.3-8.1,3-12.1,4.7c-0.8,0.3-1.6,0.8-2.3,1.3c-1.1,0.7-2.1,1.5-3.2,2.2c-0.5,0.3-0.9,0.6-1.4,0.9c-0.8,0.4-1.7,0.4-2.5,0
	c-1.6-0.8-3.3-1.6-4.9-2.5c-1.9-1-3.9-1.9-6-2.3c-1.3-0.3-2.6-0.6-4-0.9c-0.7-0.1-1.4-0.2-2.1-0.3c-1,0-1.9-0.1-2.9-0.3
	c-1.7-0.3-3.4-0.3-5-0.1c-1.7,0.2-3.5,0.6-5.2,0.7c-1.6,0.2-2.9,0.7-4.2,1.6c-0.9,0.6-1.8,1.3-2.9,1.6c-0.4,0.1-0.7,0.4-1,0.6
	c-1.1,0.9-2.2,1.8-3.3,2.8c-0.5,0.4-0.9,0.9-1.3,1.4c-1.2,1.5-2.3,3-3.5,4.6c-1.5,1.9-2.5,4.1-3.9,6.1c-1.2,1.9-2.4,3.8-3.5,5.7
	c-2.2,4.3-3.9,8.7-5.5,13.3c-1.2,3.5-1.9,7.1-2.6,10.7c-0.4,2.2-0.7,4.4-1.1,6.6c-0.2,1.3-0.4,2.7-0.5,4c-0.1,1.4-0.2,2.9-0.4,4.3
	c-0.1,0.8-1.1,1.3-1.8,1c-0.2-0.1-0.4-0.3-0.6-0.4c-0.2-0.1-0.5-0.1-0.6,0.1c-1.2,3.1-2.2,6.2-2.7,9.4c-0.3,1.7-0.8,3.4-1.3,5.1
	c-0.3,0.9-0.6,1.8-0.8,2.8c-0.6,2.2-1.3,4.5-1.4,6.8c0,0.5-0.2,1.1-0.4,1.6c-0.4,1-0.8,1.9-1.1,2.9c-0.1,0.4-0.2,0.8-0.3,1.1
	c0,0.1,0.1,0.3,0.2,0.4c1.3,0.7,2.6,1.3,4,1.6c1.7,0.4,3.1,1.2,4.5,2.2c1.1,0.9,2.3,1.7,3.4,2.6c1.2,0.9,2.3,2,3.2,3.2
	c0.9,1,1.8,2.1,2.7,3.1c1.1,1.2,2,2.5,2.8,3.8c0.6,1,1.2,1.9,1.8,2.8c0.7,1.2,1.5,2.3,2.1,3.5c0.9,1.6,1.7,3.3,2.7,4.8
	c2.1,3.3,3.6,6.9,5.3,10.5c0.8,1.6,1.4,3.2,2.2,4.8c2.3,4.2,4.6,8.4,6.9,12.6c0,0.1,0.1,0.1,0.2,0.2c0.1,0,0.2,0.1,0.2,0.1
	c0.1,0,0.1-0.1,0.1-0.2c0-0.5,0.1-0.9,0.1-1.4c0-0.3,0.3-0.5,0.5-0.3c0.4,0.2,0.8,0.5,1.2,0.7c0.5,0.2,0.9,0.6,1.2,1.1
	c1,1.6,1.9,3.4,2.5,5.1c1,2.7,2.3,5.3,4,7.7c1.3,2,2.8,3.9,4.8,5.3c0.7,0.5,1.4,1.1,2,1.7c2,1.8,4.3,3,6.7,4.2
	c2,1.1,4.2,1.9,6.4,2.6C80,185.8,84.6,186.9,89.5,186.9z M126.6,120.3c0.1-3.4-0.7-6.7-1.7-9.9c-1.4-4.1-3.2-8-4.8-12
	c-0.2-0.5-0.5-0.9-1-1.3c-1.1-0.7-1.9-1.7-2.7-2.7c-0.5-0.8-1.1-1.6-1.6-2.4c-0.5-0.8-1.2-1.5-1.9-2.1c-3.7-3.1-8.1-4.8-12.8-5.7
	c-0.4-0.1-0.8-0.1-1.2-0.2c-2.4-0.5-4.8-0.1-7.2-0.2c-0.2,0-0.5,0.1-0.7,0.2c-0.8,0.2-1.5,0.3-2.4,0.4c-1.3,0.1-2.5,0.3-3.7,0.9
	c-1.4,0.7-2.8,1.1-4.3,1.3c-0.9,0.2-1.7,0.5-2.5,0.9c-0.6,0.4-1.3,0.7-1.9,1.1c-0.4,0.2-0.4,0.7,0,0.9c0.7,0.5,1.5,1,2.2,1.5
	c2.5,1.6,4.9,3.3,6.8,5.7c0.4,0.6,1,1,1.5,1.5c0.9,0.8,1.8,1.7,2.4,2.7c1.2,2,2.6,3.9,3.8,5.8c0.3,0.5,0.6,1,0.8,1.5
	c0.8,1.8,1.7,3.6,2.5,5.5c0.8,1.8,1.5,3.7,2.2,5.6c0.3,0.7,0.5,1.4,0.6,2.1c0.5,1.7,0.9,3.4,1.3,5.1c0.1,0.3-0.1,0.6-0.4,0.8
	c-0.2,0.1-0.4,0.2-0.7,0.3c-0.6,0.2-1.1,0.1-1.5-0.4c-0.6-0.8-1.1-1.8-1.5-2.7c-1.1-2.7-2.3-5.5-3.4-8.2c-1.1-2.7-2.4-5.4-3.9-8
	c-0.6-1.1-1.3-2.2-1.9-3.3c-1.3-2.2-2.7-4.1-4.5-5.9c-1.8-1.8-3.8-3.5-6-4.8c-2-1.2-4-2.3-6-3.5c-1.5-0.9-3.2-1.4-5-1.6
	c-1.4-0.2-2.9-0.4-4.3-0.6C60.1,88,58.6,88,57.2,88c-2.6,0.1-5.1,0.2-7.6,0.8c-1.9,0-3.8,0.7-5.6,1.1c-1.6,0.3-3.1,0.9-4.6,1.4
	c-1.8,0.6-3.5,1.6-5.1,2.6c-1.9,1.1-3.8,2.1-5.8,2.8c-1.7,0.5-3.3,1.1-4.8,2.1c-0.3,0.2-0.7,0.3-1.1,0.4c-0.2,0.1-0.2,0.5,0,0.6
	c0.5,0.3,1.1,0.7,1.6,1c0.4,0.2,0.8,0.2,1.1-0.1c0.7-0.6,1.3-1.1,2-1.7c2.4-2,5.1-2.2,7.9-1.2c0.7,0.3,1.3,0.6,2,0.9
	c1.5,0.8,2.6,1.8,3.2,3.4c0.1,0.2,0.2,0.5,0.3,0.7c0.3,0.6,0.4,0.7,1.3,0.4c0.4-0.1,0.8-0.2,1.2-0.2c1.5,0,3,0.3,4.3,1.2
	c1,0.7,1.9,1.4,2.8,2.2c0.7,0.7,1.2,1.5,1.3,2.5c0.1,1,0.4,2,0.8,3c0.2,0.5,0.3,1.1,0.3,1.6c0,0.5,0,1-0.1,1.4
	c0,0.4,0.2,0.6,0.6,0.5c1.5-0.4,2.8,0,4.1,0.8c1.2,0.8,2.1,1.7,2.3,3.2c0.1,0.4,0.3,0.8,0.4,1.1c0.5,1.3,0.7,2.6,1,3.9
	c0.2,0.9,0.1,1.7-0.2,2.6c-0.2,0.6-0.4,1.2-0.6,1.8c-0.1,0.2-0.1,0.5,0,0.7c0,0.1,0.2,0.3,0.3,0.3c0.5,0.1,0.9,0.1,1.4,0.1
	c1.8,0.1,3.4,0.9,4.6,2.3c0.4,0.4,0.6,0.9,0.9,1.4c0.2,0.4,0.3,0.9,0.6,1.3c1,1.5,2.1,3,3.2,4.5c0.4,0.5,0.8,1,1.3,1.3
	c2.3,1.5,4.7,2.7,7.4,3.3c2,0.4,3.9,0.7,5.9,0.9c1.9,0.2,3.8,0.5,5.7,0.7c3.2,0.3,6.4,0.1,9.5-0.8c1.5-0.4,2.9-1,4.3-1.5
	c2.8-1.1,5.6-2.2,8.5-3.2c1.8-0.6,3.5-1.4,5.2-2.4c1-0.5,1.7-1.1,2.1-2.2c0.2-0.5,0.6-1,0.9-1.4c0.6-0.7,1-1.5,1.2-2.3
	c0.7-2.2,1.5-4.4,2.5-6.5c0.6-1.3,0.9-2.7,0.8-4.2C126.5,121.1,126.6,120.7,126.6,120.3z M67.6,71.2c0-0.4,0.1-0.9,0.1-1.5
	c0-0.6,0-1.3-0.1-1.9c0-0.7-0.3-1.2-0.9-1.6c-0.5-0.4-1.1-0.6-1.7-0.8c-1.2-0.2-2.4-0.1-3.6-0.1c-0.8,0-1.6,0.1-2.4,0.3
	c-1.8,0.4-3.5,1.1-5,2.2c-0.3,0.2-0.7,0.4-1.1,0.6c-1.4,0.7-2.3,1.9-3,3.3c-0.3,0.7-0.6,1.3-0.9,2c-0.2,0.6-0.4,1.2-0.5,1.8
	c-0.1,0.9-0.2,1.7-0.4,2.6c-0.2,0.8-0.3,1.6,0,2.4c0.5,1.5,1.1,3,1.7,4.5c0.1,0.4,0.4,0.4,0.8,0.4c0.3,0,0.6,0,1-0.1
	c1.2-0.1,2.4-0.3,3.6-0.4c2.2-0.1,4.5-0.2,6.7,0.1c2.6,0.4,5.2,0.6,7.8,1.3c1.1,0.3,2,0.2,3-0.4c1.8-1.2,3.8-2.1,5.9-2.6
	c2.6-1.1,5.2-1.9,8-2.4c2.1-0.3,4.1-0.8,6.2-0.8c0.6,0,1.3,0,1.9,0c0.5,0,0.9-0.3,1.1-0.8c0.1-0.4,0.2-0.8,0.3-1.2
	c0.2-1.7,0.5-3.3,0.7-5c0.1-0.4,0.1-0.8,0.1-1.2c-0.3-2.4-1.1-4.7-2.8-6.5c-0.3-0.3-0.7-0.6-1.2-0.8c-2-0.9-4.2-1.1-6.3-0.5
	c-0.3,0.1-0.6,0.2-0.9,0.4c-0.9,0.8-1.8,1.6-2.2,2.8c-0.5,1.2-1,2.4-1.1,3.7c-0.1,1.6-0.7,3.1-1.1,4.7c-0.2,0.8-0.6,1.5-1.1,2.1
	c-1.1,1.5-2.5,2.4-4.2,3c-2.2,0.8-4.6,0.2-6.1-1.5c-0.4-0.5-0.8-1-1.2-1.5c-0.6-0.9-1-1.8-1-2.9C67.6,73.8,67.6,72.6,67.6,71.2z
	 M72,45.9c0.9,0,1.3,0,1.7,0c1.6,0,3.2-0.2,4.7-0.6c0.5-0.1,0.9-0.4,1-0.9c0.6-1.8,1.1-3.7,1.7-5.5c0.3-1,0.2-2.1-0.1-3.1
	c0-0.1-0.2-0.3-0.3-0.3c-1.8-0.1-3.6-0.7-5.5-0.1c-0.5,0.2-1.1,0.2-1.7,0.3c-0.8,0.1-1.6,0.1-2.4,0c-1.6-0.2-3.2-0.4-4.8-0.6
	c-1-0.1-1.1,0-1,1c0.1,1,0.2,1.9,0.2,2.9c0,1.5,0.4,3,0.6,4.5c0.1,0.6,0.4,1,0.9,1.3c1.3,0.7,2.6,1.2,4.1,1.1
	C71.7,46,72.1,45.9,72,45.9z M47.1,54.8C47.1,54.8,47,54.8,47.1,54.8c-0.1-1,0-1.9-0.1-2.9c0-0.8-0.1-1.6-0.5-2.3
	c-0.6-1.1-0.8-2.3-0.8-3.5c0-2.2-0.7-4.2-1.2-6.3c0-0.2-0.4-0.3-0.6-0.2c-0.3,0.2-0.5,0.3-0.8,0.5c-1.8,1.3-3.5,2.8-5.4,3.9
	c-0.2,0.1-0.4,0.3-0.6,0.4c-1.2,1.2-1.6,1.1-0.8,3c0.2,0.4,0.3,0.9,0.4,1.4c0.1,0.9,0.5,1.7,0.8,2.5c0.4,1.2,1.1,2.1,1.7,3.1
	c0.7,1.2,1.5,2.2,2.4,3.3c0.8,1,1.8,1.6,2.8,2.2c0.2,0.1,0.5,0.1,0.7,0.2c0.7,0.1,1.5-0.3,1.6-1.1c0-0.2,0.1-0.5,0.1-0.7
	C46.9,57.2,47,56,47.1,54.8z M60.5,38.4c0-1.2,0-2.1,0-2.9c0-1-0.4-1.4-1.4-1.7c-1-0.2-2-0.4-3-0.6c-0.9-0.2-1.9-0.2-2.8-0.4
	c-0.9,0.4-1.4,1.3-2.2,1.8c-0.5,0.3-0.9,0.7-1.3,1c-0.3,0.3-0.5,0.6-0.4,1c0.5,1.4,0.7,2.8,0.8,4.2c0.1,1.9,0.8,3.5,2,5
	c0.7,0.9,1.6,1.3,2.7,1.3c0.8,0,1.6-0.1,2.4-0.3c1.1-0.3,1.8-0.9,2.2-2c0.4-0.9,0.7-1.8,0.8-2.7C60.2,40.8,60.4,39.5,60.5,38.4z
	 M86.3,38c0,0.3,0,0.6,0,1c0.1,2.5-0.2,2.6,1.6,4.5c0.7,1.5,1.9,1.6,3.4,1.3c1.5-0.3,2.9-0.8,4.2-1.5c0.5-0.3,0.9-0.7,1.2-1.2
	c0.7-1.5,1.4-3.1,1.6-4.7c0.2-1.8,0.1-3.7,0.1-5.5c0-0.1,0-0.2-0.1-0.2c-0.1-0.1-0.2-0.3-0.3-0.3c-1.1,0.2-2.2,0.4-3.3,0.6
	c-2.2,0.4-4.3,1.2-6.4,1.9c-2.3,0.8-2.3,0.4-2.2,3.2C86.2,37.4,86.3,37.7,86.3,38z M48,113.9c-0.1-0.4-0.1-1.1-0.2-1.7
	c-0.2-1-0.6-2-0.8-3c-0.4-1.8-1.5-2.9-3.1-3.7c-0.3-0.2-0.6-0.1-0.9,0.2c-1.6,1.8-2.5,3.9-3.4,6c-0.4,0.8-0.3,1.7,0.5,2.4
	c1.9,1.9,3.9,3.8,5.8,5.7c0.1,0.1,0.1,0.1,0.2,0.2c0.2,0.2,0.7,0.1,0.8-0.2C47.5,117.9,47.8,116.1,48,113.9z M35.5,58.1
	c-0.1-0.5-0.1-1.2-0.3-1.8c-0.3-1.2-0.6-2.3-0.8-3.5c-0.2-0.6-0.3-1.2-0.5-1.9c-0.1-0.2-0.2-0.4-0.3-0.6c-0.1-0.1-0.2-0.3-0.3-0.3
	c-0.2,0-0.5,0.1-0.6,0.3c-0.7,1.4-1.3,2.7-1.9,4.1c-0.8,2-1.6,4-2.6,5.9c-0.4,0.8-0.7,1.6-1,2.4c-0.3,0.7,0,1.1,0.7,1.1
	c1.5,0.1,3-0.3,4.4-0.9C34.4,62.2,35.3,60.5,35.5,58.1z M102.3,29.6c0,0.3,0,0.5,0.1,0.8c0.2,1.5,0.3,3,0.5,4.5
	c0.1,1.2,0,2.4,0.7,3.5c0.2,0.2,0.1,0.6,0.2,0.9c0.1,0.2,0.2,0.4,0.3,0.6c0.4,0.6,1.6,0.8,2.1,0.2c0.6-0.7,1.1-1.5,1.3-2.5
	c0.3-1.6,0.7-3.1,0.6-4.7c0-0.9,0.1-1.8,0.4-2.6c0.2-0.4,0.1-0.8-0.2-1.1c-0.3-0.5-0.6-0.9-1-1.4c-0.7-0.8-1.1-0.8-2-0.4
	c-0.9,0.5-1.6,1.3-2.6,1.6C102.5,29.1,102.5,29.4,102.3,29.6z M110.7,50.9c0,0.8,0,1,0,1.2c0,0.7,0.6,1,1.2,0.7
	c0.3-0.1,0.6-0.3,0.8-0.5c1.8-1.5,3.4-3.1,4.2-5.4c0.2-0.5,0.4-1,0.7-1.5c0.2-0.5,0.2-0.9,0.1-1.4c-0.4-1.5-1-2.9-1.6-4.3
	c-0.3-0.7-0.7-1.4-1.3-2c-0.1-0.1-0.4,0-0.4,0c-0.2,0.6-0.4,1.2-0.5,1.8c-0.4,2.3-1,4.5-1.9,6.6C111.2,47.9,110.8,49.6,110.7,50.9z
	 M56.5,124.7c-0.2-2-0.9-4.1-2.1-6c-0.1-0.2-0.5-0.2-0.6-0.1c-1.2,0.9-1.9,2.4-3.2,3.2c-0.1,0.1-0.2,0.3-0.2,0.4
	c-0.2,0.5-0.5,1-0.7,1.5c-0.1,0.3-0.1,0.6,0,0.9c0.6,0.9,1.1,1.8,1.7,2.6c0.9,1.2,1.8,2.5,2.7,3.7c0.1,0.1,0.2,0.3,0.3,0.4
	c0.1,0.2,0.5,0.1,0.6-0.1c0.8-1.9,1.1-3.8,1.6-5.8C56.5,125.3,56.5,125.1,56.5,124.7z M36.4,105.4c0.1-2.7-1.4-5.1-4.1-5.5
	c-0.9-0.1-1.6,0-2.2,0.6c-0.8,0.7-1.5,1.4-2.2,2.2c-0.1,0.1-0.1,0.5,0,0.7c0.1,0.1,0.2,0.2,0.3,0.4c1.7,1.5,3.5,3.1,5.2,4.6
	c0.5,0.4,1,0.8,1.5,1.2c0.4,0.3,0.9,0.1,0.9-0.3c0.1-0.7,0.2-1.4,0.4-2.1C36.3,106.3,36.4,105.6,36.4,105.4z M63.4,141.6
	c0-0.2,0.1-1,0.1-1.8c0-1,0-2.1-0.2-3.1c-0.1-1.1-0.5-2.2-1.1-3.1c-0.6-0.9-1.7-1-2.4-0.2c-0.3,0.3-0.5,0.6-0.7,1
	c-0.4,0.6-0.7,1.2-1.1,1.8c-0.2,0.3-0.2,0.6,0,0.9c0.5,1,1.1,2,1.6,3c1.1,2.1,2.2,4.2,3.4,6.3c0,0.1,0.3,0.1,0.4,0.1
	c0,0,0.1-0.1,0.1-0.2C63.4,144.8,63.4,143.5,63.4,141.6z M119.6,55.4c0,0,0.1,0,0.1,0c-0.1-1.3-0.1-2.7-0.2-4c0-0.3-0.1-0.6-0.2-0.9
	c0-0.1-0.1-0.1-0.2-0.1c-0.1,0-0.3,0-0.4,0.1c-2,2.9-2.9,6.3-3.9,9.7c-0.1,0.3,0,0.6,0.1,0.9c0.1,0.4,0.7,0.9,1.1,0.8
	c0.7-0.1,1.4-0.3,2-0.8c1.1-1,2.1-2.1,1.8-3.9C119.5,56.5,119.6,56,119.6,55.4z M27,68.4c-2-0.1-2,0-2.5,1.5c-0.4,1.1-0.7,2.1-1,3.2
	c0,0.2-0.1,0.3-0.1,0.5c0,0.3,0.2,0.7,0.5,0.8c2.1,0.5,2.6,0.3,3.7-1.5c0.2-0.3,0.3-0.6,0.4-0.8c0.4-1,0.4-2,0.1-3
	c-0.1-0.2-0.3-0.4-0.5-0.4C27.4,68.4,27,68.4,27,68.4z M23.2,79c-0.1-0.4-0.2-0.8-0.6-1c-0.2-0.2-0.7-0.1-0.8,0.1
	c-0.4,0.9-0.8,1.7-1.2,2.6c-0.3,0.7-0.5,1.3-0.7,2c-0.1,0.2,0.1,0.5,0.4,0.5c0.3,0,0.6,0,0.9-0.1c0.2-0.1,0.4-0.3,0.5-0.4
	c0.2-0.3,0.5-0.6,0.6-1C22.6,80.8,22.9,79.9,23.2,79z M118.6,67.3c0-0.7,0-1,0-1.3c0-0.1-0.1-0.2-0.1-0.2c-0.1,0-0.3,0-0.4,0.1
	c-0.9,0.9-1.1,2.1-1.5,3.2c-0.1,0.2,0,0.5,0.1,0.7c0.2,0.3,0.4,0.6,0.7,1c0,0.1,0.1,0.1,0.2,0.1c0.2,0.1,0.3,0,0.3-0.2
	C118.3,69.4,118.5,68.2,118.6,67.3z M96.8,47c0.1,0.4,0.1,0.8,0.2,1.2c0,0.1,0.1,0.2,0.1,0.2c0.1,0,0.3-0.1,0.4-0.2
	c0.4-0.8,0.8-1.5,1.1-2.3c0,0-0.1-0.1-0.1-0.1c-0.6,0-1,0.4-1.5,0.7C96.9,46.4,96.8,46.7,96.8,47z M58.4,59.4
	c0.1,0.1,0.2,0.4,0.4,0.5c0.5,0.3,1,0.2,1.6,0c0.1,0,0.2-0.1,0.2-0.1c0-0.1,0-0.4-0.1-0.4c-0.3-0.2-0.6-0.5-0.9-0.6
	C59.2,58.6,58.5,58.9,58.4,59.4z M65.6,58.4c-0.1-0.2-0.3-0.5-0.5-0.7c-0.2-0.2-0.4,0-0.6,0.2c-0.3,0.3-0.5,0.6-0.8,0.9
	c-0.1,0.1,0,0.3,0,0.4c0,0,0.1,0.1,0.2,0.1c0.5,0.1,0.9,0,1.3-0.3C65.4,58.7,65.4,58.6,65.6,58.4z M90.2,59.6
	c-0.1,0.1-0.3,0.3-0.4,0.5c-0.1,0.3,0,0.5,0.2,0.6c0.5,0.3,1,0.4,1.5,0.3c0.1,0,0.2-0.1,0.2-0.1c0-0.1,0-0.2-0.1-0.2
	c-0.3-0.3-0.6-0.6-1-0.9C90.6,59.6,90.4,59.7,90.2,59.6z M81.8,47.9c-0.4,0.1-0.8,0.1-1.1,0.2c-0.2,0.1-0.4,0.1-0.6,0.3
	c-0.1,0.1,0.4,0.5,0.7,0.6c0.5,0.2,1-0.1,1.3-0.7C82,48.2,81.9,48.1,81.8,47.9z M106.5,65.7c-0.1-0.1-0.1-0.3-0.2-0.4
	c-0.1,0.1-0.2,0.3-0.2,0.4c0,0.1,0.1,0.3,0.2,0.4C106.4,66,106.4,65.8,106.5,65.7z M114.4,85.4c0.1,0,0.1-0.1,0.2-0.1
	c0-0.1,0-0.2,0-0.2c-0.1-0.1-0.2-0.1-0.2,0.1C114.3,85.3,114.4,85.4,114.4,85.4z M66.2,59.8L66.2,59.8l0.1,0.1L66.2,59.8z
	 M56.4,55.6c0,0.1,0,0.2,0,0.3c0-0.1,0.1-0.1,0.1-0.2C56.4,55.7,56.4,55.6,56.4,55.6z M90,52.5c0.1-0.1,0.1-0.1,0.2-0.2
	c0.1-0.2,0-0.3-0.2-0.4c0,0-0.2,0.1-0.2,0.1C89.8,52.3,89.9,52.4,90,52.5z"/>
<path class="st1" d="M89.5,186.9c-4.9,0-9.5-1.1-14.1-2.6c-2.2-0.7-4.4-1.6-6.4-2.6c-2.3-1.2-4.7-2.4-6.7-4.2
	c-0.6-0.6-1.3-1.2-2-1.7c-2-1.4-3.5-3.3-4.8-5.3c-1.6-2.4-2.9-4.9-4-7.7c-0.7-1.8-1.6-3.5-2.5-5.1c-0.3-0.5-0.7-0.9-1.2-1.1
	c-0.4-0.2-0.8-0.5-1.2-0.7c-0.2-0.1-0.5,0.1-0.5,0.3c0,0.5-0.1,0.9-0.1,1.4c0,0.1-0.1,0.2-0.1,0.2c-0.1,0-0.2,0-0.2-0.1
	c-0.1,0-0.1-0.1-0.2-0.2c-2.3-4.2-4.6-8.4-6.9-12.6c-0.8-1.5-1.5-3.2-2.2-4.8c-1.7-3.5-3.3-7.1-5.3-10.5c-1-1.6-1.7-3.2-2.7-4.8
	c-0.7-1.2-1.4-2.3-2.1-3.5c-0.6-0.9-1.2-1.9-1.8-2.8c-0.8-1.4-1.8-2.7-2.8-3.8c-0.9-1-1.8-2-2.7-3.1c-1-1.2-2-2.3-3.2-3.2
	c-1.1-0.9-2.3-1.7-3.4-2.6c-1.3-1.1-2.8-1.8-4.5-2.2c-1.4-0.4-2.7-0.9-4-1.6c-0.1-0.1-0.2-0.3-0.2-0.4c0.1-0.4,0.2-0.8,0.3-1.1
	c0.4-1,0.8-1.9,1.1-2.9c0.2-0.5,0.4-1.1,0.4-1.6c0.2-2.3,0.8-4.5,1.4-6.8c0.2-0.9,0.5-1.9,0.8-2.8c0.6-1.7,1-3.3,1.3-5.1
	c0.6-3.2,1.6-6.3,2.7-9.4c0.1-0.2,0.4-0.3,0.6-0.1c0.2,0.1,0.4,0.3,0.6,0.4c0.7,0.3,1.8-0.2,1.8-1c0.1-1.4,0.2-2.9,0.4-4.3
	c0.1-1.4,0.3-2.7,0.5-4c0.3-2.2,0.7-4.4,1.1-6.6c0.7-3.6,1.4-7.2,2.6-10.7c1.6-4.5,3.2-9,5.5-13.3c1-2,2.2-3.9,3.5-5.7
	c1.3-2,2.4-4.2,3.9-6.1c1.2-1.5,2.3-3.1,3.5-4.6c0.4-0.5,0.9-1,1.3-1.4c1.1-0.9,2.2-1.9,3.3-2.8c0.3-0.3,0.6-0.5,1-0.6
	c1.1-0.3,2-1,2.9-1.6c1.3-0.9,2.7-1.4,4.2-1.6c1.7-0.2,3.5-0.6,5.2-0.7c1.7-0.2,3.4-0.2,5,0.1c0.9,0.2,1.9,0.3,2.9,0.3
	c0.7,0,1.4,0.1,2.1,0.3c1.3,0.3,2.7,0.6,4,0.9c2.1,0.4,4.1,1.3,6,2.3c1.6,0.8,3.3,1.7,4.9,2.5c0.8,0.4,1.7,0.4,2.5,0
	c0.5-0.3,1-0.6,1.4-0.9c1.1-0.7,2.1-1.5,3.2-2.2c0.7-0.5,1.5-0.9,2.3-1.3c4-1.7,7.9-3.4,12.1-4.7c1.4-0.4,2.8-0.8,4.2-1.1
	c2.2-0.5,4.5-0.2,6.6,0.4c0.5,0.1,0.9,0.3,1.3,0.6c2.6,1.4,4.7,3.3,6.3,5.8c0.9,1.3,1.8,2.7,2.7,4c1,1.5,1.7,3.1,2.3,4.7
	c0.9,2.7,1.7,5.3,2.3,8.1c0.2,0.8,0.4,1.5,0.6,2.3c1.2,4.1,1.2,8.2,0.4,12.4c-0.3,1.4-0.6,2.8-0.9,4.2c0,0.2,0,0.5,0,0.7
	c0,0.1,0.2,0.3,0.3,0.3c0.6,0,1.3-0.1,1.9-0.1c0.5,0,0.7,0.3,0.7,0.7c-0.3,2.5-0.5,5.1-1,7.6c-0.6,2.9-1.3,5.8-1.9,8.7
	c-0.4,1.9-0.6,3.8-1.2,5.6c-0.2,0.6-0.3,1.2-0.5,1.8c-0.7,2.3-1.5,4.5-2.1,6.9c-0.2,0.8-0.6,1.5-0.9,2.2c0,0.1-0.2,0.1-0.3,0.1
	c0,0-0.1-0.1-0.1-0.2c0-0.2,0-0.3,0-0.5c0.4-2.2,0.8-4.4,1.1-6.6c0.1-0.6,0.3-1.3,0.3-1.9c0-1.9,0.4-3.6,0.9-5.4
	c0.3-1.3,0.5-2.6,0.5-4c0-2.8,0.2-5.6,0.2-8.4c0-2.9-0.6-5.7-1.6-8.5c-0.2-0.6-0.5-1.2-0.7-1.8c-0.7-2.1-1.7-4.1-3.1-5.9
	c-1.3-1.7-2.5-3.6-3.7-5.3c-0.4-0.5-0.7-1-1.2-1.5c-0.7-0.7-1.4-1.6-1.9-2.5c-0.6-1.2-1.5-2.1-2.4-3c-0.7-0.7-0.7-1.1,0-1.8
	c0.3-0.3,0.5-0.6,0.8-0.9c0.3-0.4,0.1-1.2-0.3-1.4c-0.8-0.4-1.5-0.4-2.3-0.1c-0.6,0.2-1.2,0.5-1.7,0.8c-0.5,0.2-1,0.6-1.5,0.7
	c-1.2,0.3-2.5,0.6-3.2,1.9c-0.1,0.2-0.5,0.4-0.8,0.5c-3.7,1.8-7.6,3.4-11.6,4.5c-1.2,0.3-2.4,0.8-3.7,1.1c-1.5,0.4-2.9,0.8-4.5,0.9
	c-0.4,0-0.8,0.1-1.2,0.2c-1.3,0.3-2.7,0.4-4.1,0.3c-1.3-0.1-2.6,0-3.8,0.3c-1.1,0.3-2.2,0.3-3.3,0.2c-2.1-0.2-4.2-0.2-6.2-0.9
	c-2.5,0-4.9-0.9-7.4-1c-0.7,0-1.2-0.2-1.8-0.5c-1-0.5-2-1-2.9-1.6c-1.2-0.8-2.5-1.4-3.8-2.1c-0.5-0.3-1.1-0.2-1.6,0.1
	c-0.5,0.3-0.7,1-0.3,1.4c0.6,0.6,1.2,1.3,2,1.7c0.9,0.5,1.7,1.2,2.6,1.8c0.5,0.4,0.5,0.8,0.1,1.2c-1.3,1.1-2.6,2.2-4.1,2.9
	c-1.4,0.7-2.7,1.7-3.9,2.7c-0.8,0.7-1.8,1.4-2.8,1.9c-2.2,1.1-4,2.6-5.7,4.3c-0.6,0.6-1,1.4-1.4,2.2c-1.2,2.6-2.6,5.1-3.6,7.9
	c-0.3,0.8-0.7,1.6-1.1,2.4c-1.2,2.4-2.3,4.8-3,7.3c-0.1,0.5-0.4,0.9-0.5,1.3c-0.3,0.7-0.6,1.5-0.8,2.3c-0.8,3-2,5.9-3.2,8.8
	c-0.9,2.2-2,4.4-3,6.6c-0.3,0.6-0.5,1.2-0.7,1.8c-0.5,1.5-1.3,2.8-2.2,4c-1.6,2.1-2.9,4.4-4.7,6.4c-0.1,0.1-0.2,0.3-0.3,0.4
	c-0.6,0.9-0.8,1.3,0.1,2.1c0.2,0.2,0.3,0.4,0.5,0.5C8.9,98,9.2,98.1,9.5,98c0.7-0.1,1.3,0.1,1.7,0.6c0.3,0.4,0.8,0.6,1.2,0.7
	c5.3,1.6,9.8,4.6,13.9,8.2c2,1.8,4,3.5,6,5.2c0.9,0.8,1.8,1.6,2.6,2.4c1.4,1.4,2.8,2.8,4.3,4.2c2.1,1.9,3.8,4.1,5.5,6.3
	c0.7,1,1.5,1.9,2.2,2.9c0.5,0.6,1,1.3,1.4,1.9c1.6,2.4,3.1,4.8,4.6,7.3c0.3,0.5,0.6,1.1,0.9,1.7c0.7,1.3,1.5,2.7,2.2,4
	c0.6,1.1,1.3,2.2,1.9,3.3c0.4,0.8,1.2,1.3,1.2,2.3c-0.6,0.6-1.5,0.8-2.3,1.3c-0.8,0.4-1.6,0.8-2.4,1.1c-0.5,0.2-0.7,0.9-0.4,1.4
	c0.2,0.3,0.5,0.7,0.8,0.8c0.8,0.4,1.6,0.6,2.5,0.2c0.7-0.3,1.4-0.4,2-0.7c0.9-0.5,1.9-0.8,2.9-1c1.7-0.4,3.4-0.9,5.1-1.2
	c0.6-0.1,1.3-0.2,1.9-0.2c1.7,0.1,3.4-0.2,5-0.5c2.9-0.5,5.9-0.8,8.8-0.9c2.7-0.1,5.4,0,8.1,0.7c0.4,0.1,0.8,0.2,1.2,0.2
	c3.7,0.3,7.3,0.7,11,1c2.9,0.3,5.7-0.3,8.4-1.5c1.2-0.5,2.5-1,3.8-1.5c2.6-1.1,5.1-2.7,7.6-4.1c1-0.6,1.8-1.4,2.4-2.3
	c0.8-1,1.9-1.2,3-0.9c0.5,0.1,1,0.4,1.5,0.6c0.4,0.1,0.7,0.3,1.1,0.4c0.5,0.2,0.9,0,1.4-0.2c0.6-0.3,0.8-1.2,0.4-1.7
	c-0.1-0.1-0.2-0.2-0.3-0.4c-1.1-1.2-1.1-1.2-2.6-1.5c-0.3-0.1-0.6-0.1-0.9-0.2c-1.4-0.3-1.4-0.8-0.9-1.8c0.1-0.3,0.3-0.6,0.4-0.9
	c0.3-0.7,0.5-1.6,0.3-2.3c-0.2-0.8-0.1-1.6,0.1-2.3c0.3-1.2,0.4-2.5,0.6-3.8c0.1-0.9,0.4-1.9,0.4-2.8c0.1-2.4,0-4.8-0.3-7.2
	c-0.2-1.7-0.4-3.5-1-5.2c-0.9-2.5-1.7-5-2.8-7.4c-0.7-1.5-1.3-3.1-1.9-4.7c-0.4-1-0.9-1.9-1.5-2.7c-0.6-1-1.2-2.1-1.8-3.1
	c-0.2-0.3-0.4-0.7-0.5-1.1c-0.2-1.3-0.9-2.4-1.5-3.5c-0.6-0.9-0.7-1.9-0.2-3c0.2-0.3,0.4-0.4,0.7-0.1c0.4,0.4,0.8,0.7,1.1,1.2
	c0.6,1.1,1.3,2,2,3c0.5,0.8,1,1.6,1.3,2.6c0.3,1.2,0.9,2.2,1.5,3.3c2,3.5,3.8,7,5.1,10.8c0.8,2.4,1.8,4.8,2.4,7.3
	c0.2,0.8,0.4,1.6,0.6,2.3c0.2,0.6,0.3,1.3,0.5,1.9c1.7,5.2,3,10.5,3.9,15.8c0.2,1.4,0.7,2.8,0.7,4.3c0,0.6,0.1,1.3,0,1.9
	c-0.4,2.9-0.5,5.7-1.2,8.5c-0.7,2.7-1.4,5.4-2.2,8.1c-0.6,2.1-1.4,4.1-2.1,6.1c-0.8,2.1-1.8,4.1-3.2,5.9c-1,1.2-2,2.5-3,3.8
	c-1.6,2-3.7,3.5-5.8,5c-1.4,1-2.8,1.8-4.4,2.5c-1.3,0.6-2.6,1.2-3.9,1.8c-3.7,1.7-7.6,2.9-11.7,3.4c-2.2,0.3-4.4,0.6-6.7,0.9
	C92.7,186.8,91.1,187,89.5,186.9z M111.2,176.7c0.3,0,0.7-0.1,1-0.1c2.3-0.4,4.5-0.8,6.8-1.6c0.8-0.2,1.5-0.6,2.2-1
	c0.7-0.5,1.5-0.9,2.2-1.4c2-1.2,3.7-2.8,4.6-5c0.1-0.2,0.2-0.5,0.3-0.6c0.9-1,0.7-2.2,0.5-3.4c-0.1-0.6-0.6-0.9-0.9-1.4
	c-0.2-0.3-0.4-0.4-0.7-0.5c-1-0.1-2.1,0.4-3-0.2c-0.1-0.1-0.5,0.1-0.7,0.2c-0.5,0.4-0.9,0.9-1.4,1.3c-0.4,0.3-0.9,0.7-1.4,0.8
	c-1.5,0.2-2.7,0.9-4,1.6c-1,0.6-2.1,0.9-3.2,0.9c-0.9,0-1.8,0.1-2.6,0c-1.2-0.1-2.2,0.3-3.1,1c-0.3,0.2-0.5,0.4-0.8,0.5
	c-1.3,0.9-2.2,2-2.8,3.5c-0.4,0.9-0.3,1.7,0.2,2.5c0.3,0.5,0.7,1,1.2,1.5c0.4,0.5,1,0.8,1.6,0.9
	C108.4,176.4,109.8,176.5,111.2,176.7z M115.7,11.4c0.1-1-0.4-1.8-1.2-2.6c-1-1-2.2-1.6-3.4-2.2c-0.3-0.2-0.8-0.2-1.2-0.2
	c-0.8,0-1.6,0-2.4,0.3c-0.8,0.3-1.7,0.6-2.5,0.7c-1.7,0.1-3,1-4.4,1.7c-1,0.5-1,1.7-0.2,2.4c0.2,0.2,0.4,0.3,0.6,0.4
	c0.9,0.6,1.9,0.9,2.9,1.2c1.5,0.4,3.1,0.8,4.6,1.2c1.1,0.3,2.2,0.5,3.3,0.7c0.4,0.1,0.8,0,1.2-0.1c0.7-0.1,1.3-0.6,1.8-1.1
	C115.5,13.1,115.9,12.4,115.7,11.4z M96.5,177.8c0.2,0,0.5,0,0.7,0c1.1,0,1.8-0.6,2.4-1.4c0.5-0.9,1-1.9,1-2.9
	c0-0.9-0.7-1.6-1.2-2.3c-0.3-0.5-0.6-0.9-1-1.3c-0.8-0.8-1.6-1.4-2.8-0.8c-0.1,0.1-0.3,0.1-0.5,0c-0.9-0.3-1.7,0-2.6,0.2
	c-0.3,0.1-0.6,0.2-0.8,0.5c-0.6,0.7-1.1,1.3-1.7,2c-0.3,0.4-0.3,0.9-0.2,1.4c0.3,1.4,1,2.5,2,3.4c0.3,0.3,0.7,0.5,1,0.6
	C94.1,177.6,95.3,177.8,96.5,177.8z M120,20c-0.1-0.5-0.2-1-0.4-1.4c-0.2-0.5-0.5-1-0.8-1.5c-0.2-0.4-0.8-0.6-1.2-0.5
	c-1.1,0.2-1.9,0.8-2.2,1.9c-0.2,0.7-0.2,1.4-0.3,2.1c0,0.4,0.2,0.8,0.5,1c1.1,1,3.2,0.6,3.9-0.4C119.7,20.9,119.8,20.4,120,20z"/>
<path class="st1" d="M36.4,105.4c0,0.3-0.2,1-0.3,1.7c-0.1,0.7-0.2,1.4-0.4,2.1c-0.1,0.4-0.6,0.6-0.9,0.3c-0.5-0.4-1-0.8-1.5-1.2
	c-1.7-1.5-3.5-3.1-5.2-4.6c-0.1-0.1-0.2-0.2-0.3-0.4c-0.1-0.1-0.1-0.5,0-0.7c0.7-0.7,1.5-1.5,2.2-2.2c0.6-0.6,1.3-0.7,2.2-0.6
	C35.1,100.2,36.6,102.7,36.4,105.4z"/>
</svg>
