<svg id="Layer_1" data-name="Layer 1" xmlns="http://www.w3.org/2000/svg" viewBox="0 0 101.11 81.55"><defs><style>.cls-1{fill:#231f20;}.cls-2{fill:#dc2743;}</style></defs><title>Artwork12_1b631ec2-27a7-4d49-bd9d-ae0a99384d96</title><path class="cls-1" d="M91,32.82c0,.39.28.55.48.8a16.66,16.66,0,0,1,1.21,1.56c.35.55.13,1-.55,1.4a.78.78,0,0,1-.93,0c-2.52-2.11-5.71-3-8.52-4.55a2.28,2.28,0,0,0-2.34,0,40.37,40.37,0,0,1-4.13,1.72,1.79,1.79,0,0,0-1.24,1.42,34.64,34.64,0,0,0-.67,4.16A27,27,0,0,1,70.8,50.94c-.51,1-1,1.9-1.52,2.86a75.91,75.91,0,0,1-4.16,7.06,12.57,12.57,0,0,1-1,1.39c-1.57,1.82-3.14,3.63-4.74,5.42a10.75,10.75,0,0,1-1.83,1.67,20.05,20.05,0,0,0-4.29,4.09,59.76,59.76,0,0,0-4.52,6.22,7.22,7.22,0,0,1-.72,1,2.19,2.19,0,0,1-3.1.41,13.05,13.05,0,0,1-2.75-2.5,3.81,3.81,0,0,0-1.06-1,16.18,16.18,0,0,1-4-3.64c-2.39-2.75-4.7-5.57-7.09-8.32a36.77,36.77,0,0,1-2.76-3.83c-.18-.28-.35-.56-.54-.83a.85.85,0,0,0-1.1-.27c-.89.46-1.78.91-2.64,1.39C20.51,63.4,18,64.5,15.71,66c-.56.36-1.1.74-1.63,1.13a.82.82,0,0,0-.27.9c.13.48.38.93.46,1.41a4.83,4.83,0,0,1,0,1.47,1.32,1.32,0,0,1-1.35,1.21c-1.07,0-2.15.08-3.23,0a8.93,8.93,0,0,0-4.1.81,2.76,2.76,0,0,1-3.75-1.35,1.08,1.08,0,0,1,0-1.36,75.8,75.8,0,0,0,5-8,5.54,5.54,0,0,0,.77-2.34c0-.36.33-.54.65-.65a1.11,1.11,0,0,1,.25,0c1.62-.16,2.4-.35,2.8,1.81A9.85,9.85,0,0,0,12,62.87a.68.68,0,0,0,.84.31,5.21,5.21,0,0,0,.67-.33c2.76-1.67,5.66-3.11,8.31-5a14,14,0,0,1,1.54-.79.8.8,0,0,0,.29-.87c-.4-.82-.85-1.62-1.21-2.45-1-2.28-2-4.56-2.91-6.87a32.69,32.69,0,0,1-1.8-8,22.79,22.79,0,0,1,1.14-10,42.3,42.3,0,0,1,3.21-7.79,6.13,6.13,0,0,1,2.37-2.47,12.83,12.83,0,0,1,3.14-1.46,5,5,0,0,1,4.15,1.08c.59.58,1.08,1.27,1.7,1.81a40.84,40.84,0,0,0,4.4,3.64,11.45,11.45,0,0,1,4.47,5.48,11.25,11.25,0,0,0,2.38,3.46.78.78,0,0,0,1.27-.14c.87-1.1,1.66-2.28,2.62-3.3a54.81,54.81,0,0,1,4.15-3.92,53.88,53.88,0,0,1,6.74-5.09,14.4,14.4,0,0,1,4.92-1.62,4.58,4.58,0,0,1,2.45.2,7.13,7.13,0,0,0,1.19.37,4.21,4.21,0,0,1,3.15,2.57,38.1,38.1,0,0,0,2.27,3.85,15.76,15.76,0,0,1,1.76,3.82.66.66,0,0,0,1,.46c1.19-.57,2.39-1.13,3.57-1.74.35-.18.32-.48,0-.79a.79.79,0,0,1-.24-.64,32.5,32.5,0,0,1,2.56-6.44,2.89,2.89,0,0,1,1.41-1.35.24.24,0,0,1,.22,0,.26.26,0,0,1,.1.21,6.19,6.19,0,0,1-.24,1.45,33.71,33.71,0,0,1-2.49,5.95c-.13.2-.17.52.1.64a1.11,1.11,0,0,0,.67,0,2.14,2.14,0,0,0,1.48-1.52,42.83,42.83,0,0,1,3-7.09A5.18,5.18,0,0,1,88,16.76a.22.22,0,0,1,.22,0c.11.11.28.25.27.36a7.61,7.61,0,0,1-.59,2.65c-.51,1.13-.94,2.3-1.39,3.46a3,3,0,0,0-.25.95.68.68,0,0,0,.32.56c.18.05.44-.11.66-.2a.32.32,0,0,0,.15-.19,8.58,8.58,0,0,1,.5-1.63C89,20.85,90.1,19,91.28,17.2a8.66,8.66,0,0,1,1.59-1.55.52.52,0,0,1,.45-.07.47.47,0,0,1,.17.4c-.2.63-.42,1.25-.67,1.86-.5,1.22-1,2.43-1.53,3.65,0,.06.16.23.28.31a.21.21,0,0,0,.23,0,1.42,1.42,0,0,0,.32-.37,28.37,28.37,0,0,0,2.32-4.08,4.24,4.24,0,0,1,2-2.17c.13-.07.38-.11.45,0a1,1,0,0,1,.32.6,6.07,6.07,0,0,1-.85,3.07c-.46.78-1,1.53-1.44,2.32a4.2,4.2,0,0,0-.46,1.14.76.76,0,0,0,.39.84,4.88,4.88,0,0,0,.92.36c1.35.38,2.71.74,4.06,1.14a1.75,1.75,0,0,1,1.32,1.86,1.1,1.1,0,0,1-1.3,1.16,5.7,5.7,0,0,1-1.2-.25l-4.26-1.28c-.12,0-.28.09-.43.14.09.14.14.34.26.41.86.5,1.75.95,2.61,1.44a6.52,6.52,0,0,1,1,.69,1.38,1.38,0,0,1-.07,2,1,1,0,0,1-.68.24A5.64,5.64,0,0,1,95,30.28c-1.73-1-3.49-1.89-5.25-2.82a.26.26,0,0,0-.23,0c-.21.08-.23.21-.12.39a5.85,5.85,0,0,0,2.42,2.07c.52.26,1.1.41,1.59.71a2.71,2.71,0,0,1,.77.93.9.9,0,0,1-.54,1.2,6.16,6.16,0,0,1-1.22.14c-.49,0-1,0-1.47,0-.15-.19-.26-.45-.44-.54a14.36,14.36,0,0,1-3.55-2.63c-.37-.34-.69-.72-1.06-1a.93.93,0,0,0-1.14-.13,5.13,5.13,0,0,0-.66.34,1.52,1.52,0,0,0-.45.53c-.12.29.13.45.33.57a48.07,48.07,0,0,0,6.28,2.87A2,2,0,0,0,91,32.82Zm-35.35,11c-.42,0-.83,0-1.24-.09a.43.43,0,0,1-.3-.3.5.5,0,0,1,.14-.42,12.27,12.27,0,0,1,1.21-.87c1.4-.89,2.8-1.78,4.22-2.64C62.11,38,64.55,36.39,67.08,35s1.82-1.22,2.14-3.46a2.09,2.09,0,0,0,0-.25,1,1,0,0,0-.55-1c-1.13-.52-2.28-1-3.4-1.52a5.32,5.32,0,0,0-3.88-.18,12,12,0,0,0-2.08.83c-1.92,1-3.83,2-5.7,3A12.78,12.78,0,0,0,51.43,34c-.81.71-1.54,1.5-2.3,2.27a7,7,0,0,0-1.76,2.37,3.62,3.62,0,0,1-1.45,1.67.71.71,0,0,1-.9,0c-.39-.31-.73-.68-1.13-1-.66-.48-1.7-.48-2-1.29a11.85,11.85,0,0,1-.5-2.41L41.19,35c-1-4.33-.49-3.59-3.63-7.44-.2-.26-.47-.47-.66-.74A13.51,13.51,0,0,0,33.77,24a8.64,8.64,0,0,0-4.64-1.57c-3.27-.2-5.1,1.27-5.87,4.18-.26,1-.43,1.94-.71,2.89a10.1,10.1,0,0,0-.16,4.67c.52,3.11,1.33,6.15,2,9.21a30.14,30.14,0,0,0,4.35,10,1,1,0,0,0,1.28.42c2-1,4.19-1.56,6.09-2.78a11.85,11.85,0,0,1,1.56-.76.64.64,0,0,1,.82.65c-.05.41,0,.93-.28,1.18A4.06,4.06,0,0,0,37,54.35c0,.26-.4.52-.66.7a15.71,15.71,0,0,1-3.46,2,3.73,3.73,0,0,0-1.08.57.81.81,0,0,0-.2.64,2,2,0,0,0,.32.66l4.52,7.72c.37.64.78,1.27,1.19,1.89A36.64,36.64,0,0,0,43.36,75a1.78,1.78,0,0,0,2.64.28,13.94,13.94,0,0,0,1.38-1,25.75,25.75,0,0,0,4.27-4.82c1.82-2.58,3.57-5.19,5.29-7.83C58,59.91,59,58.2,60,56.49c1.46-2.51,2.92-5,4.31-7.56a45,45,0,0,0,3.36-7.46,14.43,14.43,0,0,0,.55-3.17c0-.12-.33-.37-.52-.39a1.47,1.47,0,0,0-.69.26c-2.59,1.47-5.2,2.91-7.74,4.46A6.06,6.06,0,0,1,55.61,43.78Zm11-20.92a7.52,7.52,0,0,0-3.48.95c-.58.28-1.27.39-1.61,1-.07.14.46.33,1.72.47A10.16,10.16,0,0,1,67,26.44a7.36,7.36,0,0,0,1.39.48c.26.08.73-.26.72-.52A16.18,16.18,0,0,0,69,24.69,2.13,2.13,0,0,0,67.37,23,3.4,3.4,0,0,0,66.58,22.86Z" transform="translate(0 0)"/><path class="cls-1" d="M11.62,26c0,.13,0,.46-.11.78a.77.77,0,0,1-.76.5,22.36,22.36,0,0,1-3.27-1.08c-2.07-1-4.06-2.18-6.09-3.28a2.68,2.68,0,0,1-1.3-1.43A1.14,1.14,0,0,1,.61,20a2.61,2.61,0,0,1,2.58-.28,7.58,7.58,0,0,1,1.11.54,36.84,36.84,0,0,0,5.59,2.61,2.38,2.38,0,0,1,1.73,2.65Z" transform="translate(0 0)"/><path class="cls-1" d="M89.39,52.31a17.14,17.14,0,0,1-2-.24,56.77,56.77,0,0,0-6.56-1.3,2.18,2.18,0,0,1-1.61-1,1.2,1.2,0,0,1,.08-1.38c.12-.12.25-.22.36-.34a3.23,3.23,0,0,1,3.13-1,43,43,0,0,1,6.44,1.72,1,1,0,0,1,.43.23c.53.62,1.07,1.24,1.56,1.89a1,1,0,0,1-.64,1.38,2,2,0,0,1-.24.05Z" transform="translate(0 0)"/><path class="cls-1" d="M14.94,16.22a7.65,7.65,0,0,1-.31.92.58.58,0,0,1-.43.16,1,1,0,0,1-.45-.17A14.63,14.63,0,0,1,10,13.63C9,12.3,7.9,11.07,6.86,9.81a2.74,2.74,0,0,1-.11-3.4A.78.78,0,0,1,8,6.39c.51.64,1,1.28,1.47,2a14.37,14.37,0,0,0,3.66,4C14.57,13.35,14.71,14.74,14.94,16.22Z" transform="translate(0 0)"/><path class="cls-1" d="M76,55.64a5.06,5.06,0,0,1,.33-.74.49.49,0,0,1,.41-.18,2.48,2.48,0,0,1,.66.31l3.74,2.39c.21.14.43.25.64.38,2.36,1.39,2.91,2.1,3.58,4.68a.76.76,0,0,1-.26.64.78.78,0,0,1-.68.08q-3-1.68-6-3.41a9.8,9.8,0,0,1-1-.73A3.73,3.73,0,0,1,76,55.64Z" transform="translate(0 0)"/><path class="cls-1" d="M68.66,65.39c.08-.22.24-.68.44-1.12a.42.42,0,0,1,.39-.1,2.76,2.76,0,0,1,.72.64c1.08,1.55,2.1,3.15,3.2,4.68a25.61,25.61,0,0,1,2.08,3.9,2.2,2.2,0,0,1,.1,1.45,1.42,1.42,0,0,1-.32.62c-.14.16-.69,0-.88-.23a48.52,48.52,0,0,1-5-7A4.74,4.74,0,0,1,68.66,65.39Z" transform="translate(0 0)"/><path class="cls-1" d="M26.13,8.94c-.18.73-.4,1.7-.67,2.64-.06.19-.35.33-.55.46a.64.64,0,0,1-.85-.22,3.66,3.66,0,0,1-.41-1.13c-.07-.74,0-1.49-.06-2.23a16.76,16.76,0,0,0-1-4.58,5.62,5.62,0,0,1-.36-2.18A2.36,2.36,0,0,1,22.94.16a.67.67,0,0,1,.88,0,4.77,4.77,0,0,1,.5.84,17.41,17.41,0,0,1,1.37,4.74C25.79,6.74,26,7.71,26.13,8.94Z" transform="translate(0 0)"/><path class="cls-2" d="M55.61,43.78a6.06,6.06,0,0,0,3.7-1.15c2.54-1.55,5.15-3,7.74-4.46a1.47,1.47,0,0,1,.69-.26c.19,0,.53.27.52.39a14.43,14.43,0,0,1-.55,3.17,45,45,0,0,1-3.36,7.46C63,51.47,61.5,54,60,56.49c-1,1.71-2,3.42-3.1,5.08-1.72,2.64-3.47,5.25-5.29,7.83a25.75,25.75,0,0,1-4.27,4.82,13.94,13.94,0,0,1-1.38,1A1.78,1.78,0,0,1,43.36,75a36.64,36.64,0,0,1-5.74-6.51c-.41-.62-.82-1.25-1.19-1.89l-4.52-7.72a2,2,0,0,1-.32-.66.81.81,0,0,1,.2-.64A3.73,3.73,0,0,1,32.87,57a15.71,15.71,0,0,0,3.46-2c.26-.18.62-.44.66-.7A4.06,4.06,0,0,1,38.24,52c.24-.25.23-.77.28-1.18a.64.64,0,0,0-.82-.65,11.85,11.85,0,0,0-1.56.76c-1.9,1.22-4.1,1.77-6.09,2.78a1,1,0,0,1-1.28-.42,30.14,30.14,0,0,1-4.35-10c-.7-3.06-1.51-6.1-2-9.21a10.1,10.1,0,0,1,.16-4.67c.28-.95.45-1.93.71-2.89.77-2.91,2.6-4.38,5.87-4.18A8.64,8.64,0,0,1,33.77,24a13.51,13.51,0,0,1,3.13,2.81c.19.27.46.48.66.74,3.14,3.85,2.67,3.11,3.63,7.44l.15.73a11.85,11.85,0,0,0,.5,2.41c.35.81,1.39.81,2,1.29.4.29.74.66,1.13,1a.71.71,0,0,0,.9,0,3.62,3.62,0,0,0,1.45-1.67,7,7,0,0,1,1.76-2.37c.76-.77,1.49-1.56,2.3-2.27a12.78,12.78,0,0,1,2.19-1.62c1.87-1.06,3.78-2.05,5.7-3a12,12,0,0,1,2.08-.83,5.32,5.32,0,0,1,3.88.18c1.12.52,2.27,1,3.4,1.52a1,1,0,0,1,.55,1,2.09,2.09,0,0,1,0,.25c-.32,2.24.31,2.1-2.14,3.46s-5,3-7.44,4.49c-1.42.86-2.82,1.75-4.22,2.64a12.27,12.27,0,0,0-1.21.87.5.5,0,0,0-.14.42.43.43,0,0,0,.3.3C54.78,43.75,55.19,43.76,55.61,43.78Z" transform="translate(0 0)"/><path class="cls-2" d="M66.58,22.86a3.4,3.4,0,0,1,.79.13A2.13,2.13,0,0,1,69,24.69a16.18,16.18,0,0,1,.11,1.71c0,.26-.46.6-.72.52A7.36,7.36,0,0,1,67,26.44a10.16,10.16,0,0,0-3.77-1.12c-1.26-.14-1.79-.33-1.72-.47.34-.65,1-.76,1.61-1A7.52,7.52,0,0,1,66.58,22.86Z" transform="translate(0 0)"/><path class="cls-2" d="M91,32.82a2,2,0,0,1-.73,0A48.07,48.07,0,0,1,84,30c-.2-.12-.45-.28-.33-.57a1.52,1.52,0,0,1,.45-.53,5.13,5.13,0,0,1,.66-.34.93.93,0,0,1,1.14.13c.37.32.69.7,1.06,1a14.36,14.36,0,0,0,3.55,2.63c.18.09.29.35.44.54Z" transform="translate(0 0)"/></svg>